<?xml version="1.0" encoding="UTF-8"?>
<!DOCTYPE svg PUBLIC "-//W3C//DTD SVG 1.1//EN" "http://www.w3.org/Graphics/SVG/1.1/DTD/svg11.dtd">
<!-- Creator: CorelDRAW X8 -->
<svg xmlns="http://www.w3.org/2000/svg" xml:space="preserve" width="187.66mm" height="135.05mm" version="1.1" style="shape-rendering:geometricPrecision; text-rendering:geometricPrecision; image-rendering:optimizeQuality; fill-rule:evenodd; clip-rule:evenodd"
viewBox="0 0 18766 13505"
 xmlns:xlink="http://www.w3.org/1999/xlink">
 <defs>
  <style type="text/css">
   <![CDATA[
    .str0 {stroke:#F6520A;stroke-width:7.62}
    .fil1 {fill:none}
    .fil0 {fill:#F6520A}
   ]]>
  </style>
 </defs>
 <g id="Camada_x0020_1">
  <metadata id="CorelCorpID_0Corel-Layer"/>
  <g id="_1602032264592">
   <path class="fil0" d="M10705 121c-126,-99 -252,-112 -378,0 -57,105 -84,104 -125,251 -73,270 -188,502 -594,500 -546,-3 -606,-382 -706,-751 -163,-164 -326,-159 -489,0 -79,139 -96,62 -103,291 -16,574 -528,758 -928,555 -281,-143 -267,-685 -684,-548 -67,23 -174,129 -197,211 -31,113 15,290 5,422 -35,463 -669,682 -1009,421 -177,-135 -194,-359 -508,-332 -285,26 -316,288 -207,512 106,219 23,493 -97,633 -135,157 -389,240 -616,189 -250,-56 -301,-287 -539,-289 -243,-2 -427,231 -292,485 52,97 263,304 137,642 -71,190 -461,614 -897,357 -411,-242 -614,29 -599,246 15,229 215,256 317,511 154,384 -208,908 -762,710 -251,-90 -483,9 -501,271 -17,264 236,311 366,449 156,165 178,393 81,634 -319,785 -752,295 -1038,555 -63,58 -100,203 -80,320 53,308 457,163 653,599 104,231 -11,485 -123,617 -248,292 -340,110 -591,233 -172,83 -295,346 -107,528 126,121 555,70 756,70l737 -7c154,-38 86,-506 141,-871 44,-284 85,-553 150,-801 73,-275 120,-471 208,-726l275 -677c164,-364 465,-908 692,-1193 65,-82 113,-168 188,-263 282,-353 331,-412 674,-759 399,-405 789,-700 1296,-1038 209,-140 711,-388 934,-499 1077,-537 2651,-778 3992,-623 1070,123 1901,431 2848,919 236,122 379,228 589,367 198,131 363,270 545,410 311,239 386,348 606,562 313,303 820,954 1042,1317 145,239 411,805 548,1101 109,236 285,815 352,1079 70,276 103,496 150,803 23,156 45,790 87,874 133,70 1590,33 1862,21 9,-419 -699,-116 -840,-670 -163,-638 525,-718 645,-848 139,-148 61,-439 -120,-502 -291,-100 -747,156 -913,-598 -23,-105 -33,-224 5,-328 145,-400 478,-306 513,-638 23,-216 -177,-393 -392,-350 -123,24 -363,149 -602,-15 -133,-91 -279,-274 -290,-483 -13,-236 103,-396 238,-505 140,-112 227,-400 33,-531 -256,-172 -475,43 -597,72 -456,108 -806,-314 -782,-706 19,-299 219,-320 234,-532 15,-213 -183,-386 -393,-345 -189,37 -247,241 -509,268 -475,51 -822,-320 -664,-801 16,-47 215,-377 -56,-526 -278,-152 -422,64 -529,182 -297,330 -821,196 -1028,-111 -183,-271 -78,-313 -72,-605 5,-228 -183,-419 -453,-307 -154,64 -179,303 -320,424 -355,307 -837,150 -985,-256 -108,-296 76,-313 -184,-577z"/>
   <path class="fil0" d="M9673 6980c-141,16 -651,50 -690,-47 -20,-50 -7,-634 -1,-726 108,-1 169,110 216,163 103,118 463,522 475,610zm-4028 -134c-33,-152 74,-343 140,-457l718 2c94,96 213,386 205,545 -226,70 -441,58 -710,49 -111,-159 -36,-76 -353,-139zm6198 -1680c760,-345 967,1451 338,1722 -417,180 -693,-184 -740,-665 -23,-241 -3,-469 62,-673 72,-229 138,-293 340,-384zm-5952 1032c6,-116 173,-511 267,-556 76,96 238,401 239,563l-506 -7zm3087 -242c-22,-701 -67,-791 196,-756 583,77 417,871 -196,756zm2299 1013c-58,36 -6,17 -102,27 -459,45 -411,-46 -518,-93 -250,-110 -214,-21 -448,-269 -77,-81 -133,-203 -209,-267 -495,-416 13,-301 187,-624 111,-206 12,-485 -134,-572 -341,-202 -1494,-156 -2062,-139 -17,223 105,148 303,222l10 1727c-1021,7 -725,-21 -1137,-703l-607 -1273 -402 -3c-51,93 -79,174 -129,271 -54,105 -80,123 -133,261 -78,203 -154,346 -253,549 -86,178 -174,385 -257,540 -210,391 -424,141 -431,408 325,29 1014,-3 1229,124 3,206 -1227,2851 -1384,3232 -101,244 -429,867 -449,1096l891 -1685c59,-118 795,-1659 889,-1706 106,230 44,3429 168,3754 36,-144 57,-713 58,-895 3,-387 41,-2679 110,-2876 74,39 101,90 139,170l1573 3155c33,-82 -1208,-2814 -1357,-3130 -90,-192 -445,-907 -452,-1086 360,5 1259,330 1534,456 216,98 444,221 643,338 208,122 389,312 583,413 153,-77 289,-220 444,-313l849 -453c367,-165 1204,-455 1592,-460 11,164 -822,1913 -952,2214l-732 1656c-73,142 -213,421 -240,574 55,-66 62,-108 107,-199l1242 -2474c79,-175 136,-296 222,-444l163 -343c50,-91 20,-65 97,-96l144 3743c166,-270 49,-3380 196,-3660 71,33 23,-15 80,79 21,36 45,94 61,126l1788 3476c-28,-195 -933,-2158 -995,-2304 -42,-100 -72,-194 -116,-285 -147,-302 -282,-567 -388,-887 -101,-305 -473,-898 -490,-1193 100,-38 114,-35 246,-49 121,-13 131,-36 274,-46 -34,-87 -101,-55 0,-123 152,-101 297,-200 397,-352 492,-753 -114,-1569 -1042,-1607 -647,-26 -1091,224 -1303,670 -103,218 -123,596 5,820 74,129 112,184 220,285 51,49 250,173 278,223z"/>
   <path class="fil0" d="M7832 10231l2519 6c163,0 304,71 189,-534 -71,-376 -334,-709 -646,-897 -1045,-629 -2311,327 -2062,1425z"/>
   <path class="fil0" d="M3838 12618c14,139 151,243 282,345 455,355 1467,590 1959,534 82,-10 236,-46 331,-63 119,-22 201,-45 326,-71 194,-40 391,-115 577,-196 605,-265 527,-545 1032,-476 -37,229 -693,542 -916,592 -92,21 -336,78 -397,109 70,52 194,26 278,10 466,-93 739,-158 1153,-438 177,-120 281,-186 282,-348l-4907 2z"/>
   <path class="fil0" d="M10081 12699c359,-20 337,55 562,216 530,379 873,407 1408,531 125,29 156,49 317,54 580,20 1959,-279 2208,-884l-4996 3c57,184 460,435 627,517 268,132 574,240 927,242l-153 -89c-72,-22 -98,-30 -155,-52 -246,-93 -698,-281 -745,-538z"/>
   <path class="fil1" d="M11843 5166c-202,91 -268,155 -340,384 -65,204 -85,432 -62,673 47,481 323,845 740,665"/>
   <path class="fil1" d="M8902 121c100,369 160,748 706,751 406,2 521,-230 594,-500 41,-147 68,-146 125,-251"/>
   <path class="fil1" d="M5645 6846c317,63 242,-20 353,139 269,9 484,21 710,-49 8,-159 -111,-449 -205,-545l-718 -2"/>
   <path class="fil0" d="M13170 4634c-213,19 -283,-59 -309,-246 -69,-494 388,-578 434,-180 27,231 -26,306 -125,426zm-241 -746c-158,56 -180,39 -283,174 -223,294 -14,775 624,652 578,-112 315,-1058 -341,-826z"/>
   <path class="fil0" d="M5574 3915c86,127 154,18 163,265 5,131 5,314 -18,440 -87,59 -88,16 -141,93 86,47 333,47 416,0 -29,-71 -56,-58 -125,-105l-13 -378c273,67 349,517 669,505 37,-232 -15,-617 34,-712 61,-117 93,-7 123,-125 -123,-9 -300,-30 -394,19 57,124 -8,-8 69,66 38,36 44,27 58,98 15,72 3,202 -1,278 -166,-30 -335,-437 -522,-467 -66,-11 -289,-3 -318,23z"/>
   <path class="fil0" d="M6821 4409l-23 44c-32,103 -17,117 -5,239 254,23 697,129 777,-143 50,-173 -46,-276 -186,-318 -133,-41 -388,-66 -281,-218 97,-140 236,8 298,92 73,98 17,60 118,83 34,-98 26,-166 9,-288 -186,-19 -468,-67 -611,33 -177,122 -120,352 53,416 92,34 531,117 313,266 -85,59 -222,13 -279,-34 -116,-93 -41,-124 -183,-172z"/>
   <path class="fil0" d="M10354 3917c62,88 14,16 110,79 33,469 -89,806 523,738 518,-57 170,-561 369,-740 98,-88 25,39 92,-86l-413 -3c67,119 -9,27 123,91 28,161 30,411 1,571 -151,103 -269,106 -397,-13 -21,-126 -16,-246 -17,-373 -2,-296 39,-129 109,-264 -102,-52 -396,-50 -500,0z"/>
   <path class="fil0" d="M9334 4154c209,-25 67,-172 313,-172l11 646c-97,55 -87,0 -125,85 125,63 370,27 521,20 -18,-78 -30,-47 -113,-100l-8 -649c245,-14 137,157 312,164 27,-55 40,-190 0,-231 -50,-52 -807,-26 -898,-20l-13 257z"/>
   <path class="fil1" d="M9174 5200c-263,-35 -218,55 -196,756"/>
   <path class="fil0" d="M7697 4154c179,-19 56,-181 303,-170l7 640c-100,66 -80,-5 -120,89 100,52 408,49 504,0 -71,-140 -42,35 -98,-117 -26,-71 -12,-537 1,-614 91,-1 113,-2 157,54 62,78 22,90 122,118 50,-70 45,-131 22,-257 -73,-5 -838,-22 -885,6 -69,41 -45,196 -13,251z"/>
   <path class="fil0 str0" d="M11572 4156c188,-38 15,-171 290,-160 48,809 -46,590 -105,717 99,50 417,56 522,0 -52,-134 -134,21 -133,-291 0,-146 -9,-298 18,-442 225,3 94,104 300,167l1 -242 -922 -3c-4,118 -21,178 29,254z"/>
   <path class="fil1" d="M9673 6980c-12,-88 -372,-492 -475,-610 -47,-53 -108,-164 -216,-163 -6,92 -19,676 1,726"/>
   <path class="fil0" d="M8687 3917c36,91 41,23 136,89l3 627c-107,71 -67,-30 -121,80 95,51 426,54 525,0 -68,-160 -132,126 -129,-398 4,-493 19,-239 136,-400 -92,-33 -450,-52 -550,2z"/>
   <path class="fil0" d="M5070 4235c-1,609 -56,311 -128,478 125,16 436,60 544,0 -40,-98 -33,-9 -135,-87l-2 -630c76,-52 97,-14 115,-99 -94,-5 -422,-26 -490,8 -104,52 11,29 63,93 50,61 33,138 33,237z"/>
   <path class="fil1" d="M13295 4208c-46,-398 -503,-314 -434,180 26,187 96,265 309,246"/>
   <path class="fil1" d="M5891 6198l506 7c-1,-162 -163,-467 -239,-563"/>
  </g>
 </g>
</svg>
