<svg width="525" height="353" viewBox="0 0 525 353" fill="none" xmlns="http://www.w3.org/2000/svg">
<g clip-path="url(#clip0_842_3323)">
<path d="M129.858 43.7435C132.583 43.7435 134.792 41.5389 134.792 38.8193C134.792 36.0997 132.583 33.895 129.858 33.895C127.134 33.895 124.925 36.0997 124.925 38.8193C124.925 41.5389 127.134 43.7435 129.858 43.7435Z" fill="#F2F2F2"/>
<path d="M110.198 43.7435C112.923 43.7435 115.131 41.5389 115.131 38.8193C115.131 36.0997 112.923 33.895 110.198 33.895C107.474 33.895 105.265 36.0997 105.265 38.8193C105.265 41.5389 107.474 43.7435 110.198 43.7435Z" fill="#F2F2F2"/>
<path d="M90.5378 43.7435C93.2623 43.7435 95.4709 41.5389 95.4709 38.8193C95.4709 36.0997 93.2623 33.895 90.5378 33.895C87.8133 33.895 85.6047 36.0997 85.6047 38.8193C85.6047 41.5389 87.8133 43.7435 90.5378 43.7435Z" fill="#F2F2F2"/>
<path d="M70.8774 43.7435C73.6018 43.7435 75.8105 41.5389 75.8105 38.8193C75.8105 36.0997 73.6018 33.895 70.8774 33.895C68.1529 33.895 65.9443 36.0997 65.9443 38.8193C65.9443 41.5389 68.1529 43.7435 70.8774 43.7435Z" fill="#F2F2F2"/>
<path d="M129.858 64.3029C132.583 64.3029 134.792 62.0982 134.792 59.3786C134.792 56.659 132.583 54.4543 129.858 54.4543C127.134 54.4543 124.925 56.659 124.925 59.3786C124.925 62.0982 127.134 64.3029 129.858 64.3029Z" fill="#F2F2F2"/>
<path d="M110.198 64.3029C112.923 64.3029 115.131 62.0982 115.131 59.3786C115.131 56.659 112.923 54.4543 110.198 54.4543C107.474 54.4543 105.265 56.659 105.265 59.3786C105.265 62.0982 107.474 64.3029 110.198 64.3029Z" fill="#F2F2F2"/>
<path d="M90.5378 64.3029C93.2623 64.3029 95.4709 62.0982 95.4709 59.3786C95.4709 56.659 93.2623 54.4543 90.5378 54.4543C87.8133 54.4543 85.6047 56.659 85.6047 59.3786C85.6047 62.0982 87.8133 64.3029 90.5378 64.3029Z" fill="#F2F2F2"/>
<path d="M70.8774 64.3029C73.6018 64.3029 75.8105 62.0982 75.8105 59.3786C75.8105 56.659 73.6018 54.4543 70.8774 54.4543C68.1529 54.4543 65.9443 56.659 65.9443 59.3786C65.9443 62.0982 68.1529 64.3029 70.8774 64.3029Z" fill="#F2F2F2"/>
<path d="M129.858 84.8622C132.583 84.8622 134.792 82.6575 134.792 79.9379C134.792 77.2183 132.583 75.0137 129.858 75.0137C127.134 75.0137 124.925 77.2183 124.925 79.9379C124.925 82.6575 127.134 84.8622 129.858 84.8622Z" fill="#F2F2F2"/>
<path d="M110.198 84.8622C112.923 84.8622 115.131 82.6575 115.131 79.9379C115.131 77.2183 112.923 75.0137 110.198 75.0137C107.474 75.0137 105.265 77.2183 105.265 79.9379C105.265 82.6575 107.474 84.8622 110.198 84.8622Z" fill="#F2F2F2"/>
<path d="M90.5378 84.8622C93.2623 84.8622 95.4709 82.6575 95.4709 79.9379C95.4709 77.2183 93.2623 75.0137 90.5378 75.0137C87.8133 75.0137 85.6047 77.2183 85.6047 79.9379C85.6047 82.6575 87.8133 84.8622 90.5378 84.8622Z" fill="#F2F2F2"/>
<path d="M70.8774 84.8622C73.6018 84.8622 75.8105 82.6575 75.8105 79.9379C75.8105 77.2183 73.6018 75.0137 70.8774 75.0137C68.1529 75.0137 65.9443 77.2183 65.9443 79.9379C65.9443 82.6575 68.1529 84.8622 70.8774 84.8622Z" fill="#F2F2F2"/>
<path d="M129.858 105.422C132.583 105.422 134.792 103.217 134.792 100.497C134.792 97.7777 132.583 95.573 129.858 95.573C127.134 95.573 124.925 97.7777 124.925 100.497C124.925 103.217 127.134 105.422 129.858 105.422Z" fill="#F2F2F2"/>
<path d="M110.198 105.422C112.923 105.422 115.131 103.217 115.131 100.497C115.131 97.7777 112.923 95.573 110.198 95.573C107.474 95.573 105.265 97.7777 105.265 100.497C105.265 103.217 107.474 105.422 110.198 105.422Z" fill="#F2F2F2"/>
<path d="M90.5378 105.422C93.2623 105.422 95.4709 103.217 95.4709 100.497C95.4709 97.7777 93.2623 95.573 90.5378 95.573C87.8133 95.573 85.6047 97.7777 85.6047 100.497C85.6047 103.217 87.8133 105.422 90.5378 105.422Z" fill="#F2F2F2"/>
<path d="M70.8774 105.422C73.6018 105.422 75.8105 103.217 75.8105 100.497C75.8105 97.7777 73.6018 95.573 70.8774 95.573C68.1529 95.573 65.9443 97.7777 65.9443 100.497C65.9443 103.217 68.1529 105.422 70.8774 105.422Z" fill="#F2F2F2"/>
<path d="M129.858 125.981C132.583 125.981 134.792 123.776 134.792 121.057C134.792 118.337 132.583 116.132 129.858 116.132C127.134 116.132 124.925 118.337 124.925 121.057C124.925 123.776 127.134 125.981 129.858 125.981Z" fill="#F2F2F2"/>
<path d="M110.198 125.981C112.923 125.981 115.131 123.776 115.131 121.057C115.131 118.337 112.923 116.132 110.198 116.132C107.474 116.132 105.265 118.337 105.265 121.057C105.265 123.776 107.474 125.981 110.198 125.981Z" fill="#F2F2F2"/>
<path d="M90.5378 125.981C93.2623 125.981 95.4709 123.776 95.4709 121.057C95.4709 118.337 93.2623 116.132 90.5378 116.132C87.8133 116.132 85.6047 118.337 85.6047 121.057C85.6047 123.776 87.8133 125.981 90.5378 125.981Z" fill="#F2F2F2"/>
<path d="M70.8774 125.981C73.6018 125.981 75.8105 123.776 75.8105 121.057C75.8105 118.337 73.6018 116.132 70.8774 116.132C68.1529 116.132 65.9443 118.337 65.9443 121.057C65.9443 123.776 68.1529 125.981 70.8774 125.981Z" fill="#F2F2F2"/>
<path d="M129.858 146.54C132.583 146.54 134.792 144.336 134.792 141.616C134.792 138.896 132.583 136.692 129.858 136.692C127.134 136.692 124.925 138.896 124.925 141.616C124.925 144.336 127.134 146.54 129.858 146.54Z" fill="#F2F2F2"/>
<path d="M110.198 146.54C112.923 146.54 115.131 144.336 115.131 141.616C115.131 138.896 112.923 136.692 110.198 136.692C107.474 136.692 105.265 138.896 105.265 141.616C105.265 144.336 107.474 146.54 110.198 146.54Z" fill="#F2F2F2"/>
<path d="M90.5378 146.54C93.2623 146.54 95.4709 144.336 95.4709 141.616C95.4709 138.896 93.2623 136.692 90.5378 136.692C87.8133 136.692 85.6047 138.896 85.6047 141.616C85.6047 144.336 87.8133 146.54 90.5378 146.54Z" fill="#F2F2F2"/>
<path d="M70.8774 146.54C73.6018 146.54 75.8105 144.336 75.8105 141.616C75.8105 138.896 73.6018 136.692 70.8774 136.692C68.1529 136.692 65.9443 138.896 65.9443 141.616C65.9443 144.336 68.1529 146.54 70.8774 146.54Z" fill="#F2F2F2"/>
<path d="M86.5112 275.952V277.475C86.5134 279.998 87.5188 282.418 89.3065 284.203C91.0942 285.987 93.5182 286.991 96.0465 286.993H164.7C167.229 286.992 169.653 285.989 171.441 284.204C173.229 282.419 174.234 279.999 174.235 277.475V275.952C174.24 273.724 173.456 271.567 172.023 269.86C171.546 269.293 171.006 268.783 170.413 268.337C170.413 268.337 132.669 267.484 132.669 266.434H96.0465C93.5186 266.437 91.0953 267.441 89.3079 269.225C87.5205 271.01 86.5147 273.429 86.5112 275.952V275.952Z" fill="#CCCCCC"/>
<path d="M135.884 286.615H125.967V350.577H135.884V286.615Z" fill="#CCCCCC"/>
<path d="M164.108 350.23C164.108 351.299 149.081 350.643 130.544 350.643C112.007 350.643 96.9799 351.299 96.9799 350.23C96.9799 349.16 112.007 340.678 130.544 340.678C149.081 340.678 164.108 349.16 164.108 350.23Z" fill="#CCCCCC"/>
<path d="M150.474 274.66C151.19 273.701 151.686 272.597 151.929 271.426C152.171 270.255 152.153 269.045 151.876 267.882C151.599 266.718 151.07 265.629 150.326 264.692C149.582 263.755 148.641 262.992 147.57 262.457L126.552 190.967L110.547 198.792L136.24 266.603C135.459 268.459 135.387 270.537 136.038 272.443C136.688 274.348 138.017 275.95 139.772 276.943C141.526 277.936 143.585 278.252 145.557 277.831C147.53 277.411 149.279 276.282 150.474 274.66L150.474 274.66Z" fill="#A0616A"/>
<path d="M131.314 202.906L113.401 207.746C112.891 207.884 112.358 207.91 111.837 207.824C111.316 207.737 110.82 207.539 110.382 207.244C109.945 206.949 109.576 206.563 109.302 206.113C109.027 205.663 108.853 205.159 108.791 204.635L106.626 186.294C105.935 183.687 106.308 180.913 107.663 178.58C109.018 176.247 111.244 174.545 113.854 173.848C116.463 173.151 119.244 173.516 121.584 174.861C123.925 176.207 125.636 178.425 126.342 181.028L133.721 197.899C133.932 198.382 134.037 198.905 134.027 199.432C134.018 199.959 133.894 200.477 133.666 200.953C133.437 201.428 133.109 201.848 132.703 202.185C132.297 202.522 131.823 202.768 131.314 202.906H131.314Z" fill="#FF5300"/>
<path d="M155.156 342.733L164.508 342.732L168.957 318.521H155.154L155.156 342.733Z" fill="#A0616A"/>
<path d="M152.77 339.685L171.187 339.684H171.188C172.729 339.684 174.256 339.987 175.68 340.576C177.104 341.164 178.398 342.027 179.488 343.115C180.577 344.203 181.442 345.495 182.032 346.916C182.622 348.338 182.925 349.861 182.925 351.4V351.781L152.771 351.782L152.77 339.685Z" fill="#2F2E41"/>
<path d="M166.011 329.749C165.902 329.749 165.792 329.744 165.683 329.733L152.74 328.793C152.217 328.744 151.712 328.576 151.263 328.302C150.815 328.028 150.436 327.655 150.155 327.211C149.875 326.768 149.7 326.266 149.644 325.744C149.588 325.222 149.654 324.694 149.834 324.202L167.155 285.356C167.279 285.01 167.33 284.642 167.304 284.275C167.278 283.908 167.177 283.551 167.006 283.225C166.835 282.896 166.597 282.606 166.306 282.375C166.015 282.144 165.679 281.977 165.319 281.885C157.174 279.76 136.277 274.101 118.187 267.48C110.437 264.643 105.556 260.543 103.679 255.295C101.205 248.376 104.865 242.066 105.022 241.801L105.145 241.593L122.167 243.138L140.62 244.705L181.06 266.351C184.449 268.18 187.023 271.216 188.269 274.855C189.516 278.493 189.344 282.467 187.787 285.985L169.143 327.718C168.873 328.323 168.434 328.836 167.878 329.197C167.322 329.557 166.674 329.749 166.011 329.749V329.749Z" fill="#2F2E41"/>
<path d="M125.127 166.285C135.474 166.285 143.862 157.911 143.862 147.583C143.862 137.254 135.474 128.88 125.127 128.88C114.779 128.88 106.391 137.254 106.391 147.583C106.391 157.911 114.779 166.285 125.127 166.285Z" fill="#A0616A"/>
<path d="M149.816 341.971L159.168 341.97L163.618 317.759H149.814L149.816 341.971Z" fill="#A0616A"/>
<path d="M147.43 338.923L165.848 338.922H165.848C167.39 338.922 168.916 339.225 170.34 339.814C171.764 340.403 173.058 341.266 174.148 342.354C175.238 343.442 176.102 344.733 176.692 346.155C177.282 347.576 177.585 349.1 177.585 350.638V351.019L147.431 351.02L147.43 338.923Z" fill="#2F2E41"/>
<path d="M160.671 332.034C160.562 332.034 160.453 332.028 160.343 332.018L147.401 331.077C146.877 331.029 146.372 330.861 145.924 330.587C145.476 330.312 145.096 329.939 144.816 329.496C144.535 329.052 144.36 328.55 144.304 328.028C144.249 327.506 144.314 326.979 144.495 326.486L161.816 287.641C161.939 287.294 161.99 286.926 161.964 286.559C161.938 286.193 161.837 285.835 161.666 285.51C161.495 285.18 161.257 284.89 160.966 284.659C160.676 284.428 160.339 284.261 159.979 284.17C151.834 282.044 130.937 276.385 112.847 269.764C105.097 266.927 100.216 262.828 98.3396 257.579C95.8657 250.66 99.5255 244.35 99.6825 244.085L99.8053 243.878L116.827 245.422L135.281 246.989L175.72 268.635C179.109 270.465 181.683 273.501 182.929 277.139C184.176 280.778 184.004 284.752 182.447 288.269L163.803 330.003C163.534 330.607 163.094 331.121 162.538 331.481C161.983 331.841 161.334 332.033 160.671 332.034V332.034Z" fill="#2F2E41"/>
<path d="M130.905 176.89L111.072 170.036C111.072 170.036 98.621 179.585 104.602 203.273C107.725 215.497 106.815 228.4 102.009 240.067C101.43 241.51 100.763 242.917 100.011 244.279C100.011 244.279 122.133 270.93 142.729 251.132L134.719 212.678C134.719 212.678 147.306 187.169 130.905 176.89Z" fill="#2F2E41"/>
<path d="M127.453 166.921C124.786 162.937 122.682 157.412 125.618 153.621C128.516 149.879 134.232 150.431 138.67 148.775C144.852 146.469 148.437 139.219 147.319 132.727C146.201 126.234 140.98 120.852 134.76 118.65C128.54 116.448 121.526 117.164 115.435 119.7C107.937 122.822 101.505 128.86 98.8084 136.51C96.1113 144.16 97.5531 153.344 103.148 159.224C109.147 165.528 118.561 167.207 127.271 167.106" fill="#2F2E41"/>
<path d="M110.025 132.935C106.665 135.665 101.538 134.453 97.9315 132.056C94.3246 129.66 91.3979 126.248 87.4954 124.369C80.6153 121.057 72.2971 123.258 65.6012 126.927C58.9052 130.596 52.9696 135.665 45.8966 138.544C38.8237 141.424 29.7982 141.566 24.4425 136.129C23.1245 139.941 23.0168 144.066 24.134 147.941C25.2512 151.816 27.5389 155.253 30.685 157.782C33.8311 160.311 37.6823 161.81 41.7133 162.074C45.7442 162.338 49.7585 161.354 53.2085 159.256C60.9582 154.544 65.2389 144.664 73.9311 142.063C78.7411 140.623 83.906 141.783 88.7673 143.038C93.6286 144.294 98.6975 145.65 103.603 144.581C108.509 143.513 113.098 139.112 112.474 134.138L110.025 132.935Z" fill="#2F2E41"/>
<path d="M171.015 309.157C169.031 296.294 169.031 283.204 171.015 270.341C171.141 269.576 171.535 268.879 172.127 268.377C172.718 267.874 173.47 267.597 174.247 267.595H204.663C205.155 267.594 205.642 267.705 206.086 267.919C206.529 268.134 206.918 268.447 207.222 268.834C207.533 269.226 207.75 269.684 207.857 270.173C207.963 270.662 207.957 271.169 207.838 271.655C204.993 283.55 204.993 295.947 207.838 307.843C207.957 308.329 207.963 308.836 207.857 309.324C207.75 309.813 207.533 310.271 207.222 310.664C206.918 311.051 206.529 311.364 206.086 311.578C205.642 311.793 205.155 311.904 204.663 311.902H174.247C173.47 311.901 172.718 311.624 172.127 311.121C171.535 310.618 171.141 309.922 171.015 309.157V309.157Z" fill="#FF5300"/>
<path d="M195.303 286.386H179.342C178.735 286.385 178.153 286.144 177.724 285.716C177.295 285.287 177.054 284.707 177.053 284.101V283.209C177.054 282.603 177.295 282.023 177.724 281.594C178.153 281.166 178.735 280.925 179.342 280.924H195.303C195.91 280.925 196.491 281.166 196.92 281.594C197.349 282.023 197.591 282.603 197.591 283.209V284.101C197.591 284.707 197.349 285.287 196.92 285.716C196.491 286.144 195.91 286.385 195.303 286.386Z" fill="white"/>
<path d="M195.303 295.786H179.342C178.735 295.785 178.153 295.544 177.724 295.116C177.295 294.687 177.054 294.107 177.053 293.501V292.608C177.054 292.003 177.295 291.422 177.724 290.994C178.153 290.566 178.735 290.325 179.342 290.324H195.303C195.91 290.325 196.491 290.566 196.92 290.994C197.349 291.422 197.591 292.003 197.591 292.608V293.501C197.591 294.107 197.349 294.687 196.92 295.116C196.491 295.544 195.91 295.785 195.303 295.786Z" fill="white"/>
<path d="M179.013 271.234C179.466 270.127 179.671 268.934 179.612 267.74C179.554 266.546 179.234 265.378 178.674 264.321C178.115 263.263 177.33 262.341 176.375 261.619C175.42 260.897 174.318 260.393 173.147 260.142L134.903 196.161L121.364 207.729L163.214 266.982C162.922 268.975 163.372 271.005 164.48 272.687C165.587 274.37 167.274 275.589 169.222 276.113C171.169 276.637 173.242 276.43 175.046 275.531C176.851 274.632 178.262 273.103 179.013 271.234L179.013 271.234Z" fill="#A0616A"/>
<path d="M142.501 206.534L126.368 215.688C125.909 215.949 125.399 216.107 124.873 216.153C124.347 216.199 123.817 216.132 123.32 215.955C122.822 215.778 122.369 215.496 121.99 215.129C121.612 214.761 121.317 214.317 121.126 213.825L114.439 196.605C113.118 194.253 112.785 191.474 113.513 188.878C114.241 186.281 115.97 184.078 118.323 182.752C120.675 181.427 123.458 181.086 126.062 181.805C128.665 182.525 130.877 184.245 132.211 186.59L143.579 201.085C143.905 201.5 144.137 201.98 144.259 202.493C144.382 203.006 144.393 203.539 144.29 204.056C144.188 204.573 143.975 205.062 143.666 205.49C143.358 205.917 142.96 206.273 142.501 206.534V206.534Z" fill="#2F2E41"/>
<path d="M314.166 229.008H4.46186C3.14683 229.008 1.88566 229.529 0.955799 230.457C0.0259346 231.386 -0.49646 232.645 -0.49646 233.957C-0.49646 235.27 0.0259346 236.529 0.955799 237.457C1.88566 238.385 3.14683 238.907 4.46186 238.907H13.2343V346.653C13.2343 347.966 13.7567 349.225 14.6865 350.153C15.6164 351.081 16.8776 351.602 18.1926 351.602C19.5076 351.602 20.7688 351.081 21.6987 350.153C22.6285 349.225 23.1509 347.966 23.1509 346.653V248.417L78.7383 348.989C79.3972 350.123 80.4799 350.95 81.7488 351.288C83.0177 351.626 84.3691 351.448 85.5065 350.792C86.6438 350.137 87.4742 349.057 87.8154 347.792C88.1566 346.526 87.9807 345.176 87.3263 344.04L29.2181 238.907H294.714V238.971L236.642 344.04C235.984 345.176 235.806 346.527 236.146 347.795C236.487 349.063 237.318 350.144 238.456 350.8C239.595 351.457 240.948 351.635 242.219 351.295C243.489 350.955 244.572 350.126 245.229 348.989L294.714 259.458V346.653C294.714 347.966 295.237 349.225 296.166 350.153C297.096 351.081 298.357 351.602 299.672 351.602C300.987 351.602 302.249 351.081 303.178 350.153C304.108 349.225 304.631 347.966 304.631 346.653V241.517L306.073 238.907H314.166C315.481 238.907 316.742 238.385 317.672 237.457C318.602 236.529 319.124 235.27 319.124 233.957C319.124 232.645 318.602 231.386 317.672 230.457C316.742 229.529 315.481 229.008 314.166 229.008V229.008Z" fill="#3F3D56"/>
<path d="M186.013 225.962H125.75C124.275 225.962 123.08 227.155 123.08 228.627C123.08 230.099 124.275 231.292 125.75 231.292H186.013C187.487 231.292 188.682 230.099 188.682 228.627C188.682 227.155 187.487 225.962 186.013 225.962Z" fill="#CCCCCC"/>
<path d="M226.442 231.292H158.551C157.237 231.291 155.976 230.769 155.047 229.841C154.117 228.913 153.594 227.655 153.593 226.343V189.031C153.594 187.719 154.117 186.461 155.047 185.533C155.976 184.605 157.237 184.083 158.551 184.082H226.442C227.756 184.083 229.017 184.605 229.946 185.533C230.876 186.461 231.399 187.719 231.4 189.031V226.343C231.399 227.655 230.876 228.913 229.946 229.841C229.017 230.769 227.756 231.291 226.442 231.292V231.292Z" fill="#CCCCCC"/>
<path d="M192.496 212.256C195.024 212.256 197.073 210.21 197.073 207.687C197.073 205.164 195.024 203.118 192.496 203.118C189.969 203.118 187.92 205.164 187.92 207.687C187.92 210.21 189.969 212.256 192.496 212.256Z" fill="white"/>
<path d="M278.253 139.363V5.72724C278.255 4.20881 278.86 2.75307 279.935 1.67937C281.011 0.605681 282.469 0.00172717 283.991 0H389.815C391.336 0.00172717 392.795 0.605681 393.87 1.67937C394.946 2.75307 395.551 4.20881 395.553 5.72724V139.363C395.551 140.881 394.946 142.337 393.87 143.411C392.795 144.485 391.336 145.088 389.815 145.09H283.991C282.469 145.088 281.011 144.485 279.935 143.411C278.86 142.337 278.255 140.881 278.253 139.363V139.363ZM283.991 1.27272C282.807 1.27405 281.673 1.74379 280.837 2.57889C280 3.41398 279.529 4.54623 279.528 5.72724V139.363C279.529 140.544 280 141.676 280.837 142.511C281.673 143.346 282.807 143.816 283.991 143.817H389.815C390.998 143.816 392.133 143.346 392.969 142.511C393.806 141.676 394.276 140.544 394.278 139.363V5.72724C394.276 4.54623 393.806 3.41398 392.969 2.57889C392.133 1.74379 390.998 1.27405 389.815 1.27272H283.991Z" fill="#E6E6E6"/>
<path d="M342.837 61.3717V33.9321C342.838 33.1729 343.14 32.445 343.678 31.9081C344.216 31.3713 344.945 31.0693 345.706 31.0685H369C369.761 31.0693 370.49 31.3713 371.028 31.9081C371.565 32.445 371.868 33.1729 371.869 33.9321V61.3717C371.868 62.131 371.565 62.8588 371.028 63.3957C370.49 63.9325 369.761 64.2345 369 64.2354H345.706C344.945 64.2345 344.216 63.9325 343.678 63.3957C343.14 62.8588 342.838 62.131 342.837 61.3717V61.3717Z" fill="#FF5300"/>
<path d="M297.575 74.0989V46.6593C297.576 45.9001 297.878 45.1722 298.416 44.6353C298.954 44.0985 299.683 43.7965 300.443 43.7957H323.738C324.498 43.7965 325.227 44.0985 325.765 44.6353C326.303 45.1722 326.606 45.9001 326.606 46.6593V74.0989C326.606 74.8581 326.303 75.586 325.765 76.1229C325.227 76.6597 324.498 76.9617 323.738 76.9625H300.443C299.683 76.9617 298.954 76.6597 298.416 76.1229C297.878 75.586 297.576 74.8581 297.575 74.0989V74.0989Z" fill="#CCCCCC"/>
<path d="M333.912 112.917V85.4773C333.913 84.718 334.216 83.9902 334.753 83.4533C335.291 82.9165 336.02 82.6145 336.781 82.6136H360.075C360.836 82.6145 361.565 82.9165 362.103 83.4533C362.641 83.9902 362.943 84.718 362.944 85.4773V112.917C362.943 113.676 362.641 114.404 362.103 114.941C361.565 115.478 360.836 115.78 360.075 115.781H336.781C336.02 115.78 335.291 115.478 334.753 114.941C334.216 114.404 333.913 113.676 333.912 112.917Z" fill="#FF6584"/>
<path d="M511.563 13.9249C514.288 13.9249 516.496 11.7203 516.496 9.00067C516.496 6.28108 514.288 4.07642 511.563 4.07642C508.839 4.07642 506.63 6.28108 506.63 9.00067C506.63 11.7203 508.839 13.9249 511.563 13.9249Z" fill="#F2F2F2"/>
<path d="M511.563 33.5502C514.288 33.5502 516.496 31.3455 516.496 28.6259C516.496 25.9063 514.288 23.7017 511.563 23.7017C508.839 23.7017 506.63 25.9063 506.63 28.6259C506.63 31.3455 508.839 33.5502 511.563 33.5502Z" fill="#F2F2F2"/>
<path d="M511.563 53.1754C514.288 53.1754 516.496 50.9708 516.496 48.2512C516.496 45.5316 514.288 43.3269 511.563 43.3269C508.839 43.3269 506.63 45.5316 506.63 48.2512C506.63 50.9708 508.839 53.1754 511.563 53.1754Z" fill="#F2F2F2"/>
<path d="M511.563 72.8007C514.288 72.8007 516.496 70.596 516.496 67.8764C516.496 65.1568 514.288 62.9521 511.563 62.9521C508.839 62.9521 506.63 65.1568 506.63 67.8764C506.63 70.596 508.839 72.8007 511.563 72.8007Z" fill="#F2F2F2"/>
<path d="M490.967 13.9249C493.692 13.9249 495.9 11.7203 495.9 9.00067C495.9 6.28108 493.692 4.07642 490.967 4.07642C488.243 4.07642 486.034 6.28108 486.034 9.00067C486.034 11.7203 488.243 13.9249 490.967 13.9249Z" fill="#F2F2F2"/>
<path d="M490.967 33.5502C493.692 33.5502 495.9 31.3455 495.9 28.6259C495.9 25.9063 493.692 23.7017 490.967 23.7017C488.243 23.7017 486.034 25.9063 486.034 28.6259C486.034 31.3455 488.243 33.5502 490.967 33.5502Z" fill="#F2F2F2"/>
<path d="M490.967 53.1754C493.692 53.1754 495.9 50.9708 495.9 48.2512C495.9 45.5316 493.692 43.3269 490.967 43.3269C488.243 43.3269 486.034 45.5316 486.034 48.2512C486.034 50.9708 488.243 53.1754 490.967 53.1754Z" fill="#F2F2F2"/>
<path d="M490.967 72.8007C493.692 72.8007 495.9 70.596 495.9 67.8764C495.9 65.1568 493.692 62.9521 490.967 62.9521C488.243 62.9521 486.034 65.1568 486.034 67.8764C486.034 70.596 488.243 72.8007 490.967 72.8007Z" fill="#F2F2F2"/>
<path d="M470.371 13.9249C473.096 13.9249 475.304 11.7203 475.304 9.00067C475.304 6.28108 473.096 4.07642 470.371 4.07642C467.647 4.07642 465.438 6.28108 465.438 9.00067C465.438 11.7203 467.647 13.9249 470.371 13.9249Z" fill="#F2F2F2"/>
<path d="M470.371 33.5502C473.096 33.5502 475.304 31.3455 475.304 28.6259C475.304 25.9063 473.096 23.7017 470.371 23.7017C467.647 23.7017 465.438 25.9063 465.438 28.6259C465.438 31.3455 467.647 33.5502 470.371 33.5502Z" fill="#F2F2F2"/>
<path d="M470.371 53.1754C473.096 53.1754 475.304 50.9708 475.304 48.2512C475.304 45.5316 473.096 43.3269 470.371 43.3269C467.647 43.3269 465.438 45.5316 465.438 48.2512C465.438 50.9708 467.647 53.1754 470.371 53.1754Z" fill="#F2F2F2"/>
<path d="M470.371 72.8007C473.096 72.8007 475.304 70.596 475.304 67.8764C475.304 65.1568 473.096 62.9521 470.371 62.9521C467.647 62.9521 465.438 65.1568 465.438 67.8764C465.438 70.596 467.647 72.8007 470.371 72.8007Z" fill="#F2F2F2"/>
<path d="M449.775 13.9249C452.5 13.9249 454.708 11.7203 454.708 9.00067C454.708 6.28108 452.5 4.07642 449.775 4.07642C447.051 4.07642 444.842 6.28108 444.842 9.00067C444.842 11.7203 447.051 13.9249 449.775 13.9249Z" fill="#F2F2F2"/>
<path d="M449.775 33.5502C452.5 33.5502 454.708 31.3455 454.708 28.6259C454.708 25.9063 452.5 23.7017 449.775 23.7017C447.051 23.7017 444.842 25.9063 444.842 28.6259C444.842 31.3455 447.051 33.5502 449.775 33.5502Z" fill="#F2F2F2"/>
<path d="M449.775 53.1754C452.5 53.1754 454.708 50.9708 454.708 48.2512C454.708 45.5316 452.5 43.3269 449.775 43.3269C447.051 43.3269 444.842 45.5316 444.842 48.2512C444.842 50.9708 447.051 53.1754 449.775 53.1754Z" fill="#F2F2F2"/>
<path d="M449.775 72.8007C452.5 72.8007 454.708 70.596 454.708 67.8764C454.708 65.1568 452.5 62.9521 449.775 62.9521C447.051 62.9521 444.842 65.1568 444.842 67.8764C444.842 70.596 447.051 72.8007 449.775 72.8007Z" fill="#F2F2F2"/>
<path d="M429.179 13.9249C431.904 13.9249 434.112 11.7203 434.112 9.00067C434.112 6.28108 431.904 4.07642 429.179 4.07642C426.455 4.07642 424.246 6.28108 424.246 9.00067C424.246 11.7203 426.455 13.9249 429.179 13.9249Z" fill="#F2F2F2"/>
<path d="M429.179 33.5502C431.904 33.5502 434.112 31.3455 434.112 28.6259C434.112 25.9063 431.904 23.7017 429.179 23.7017C426.455 23.7017 424.246 25.9063 424.246 28.6259C424.246 31.3455 426.455 33.5502 429.179 33.5502Z" fill="#F2F2F2"/>
<path d="M429.179 53.1754C431.904 53.1754 434.112 50.9708 434.112 48.2512C434.112 45.5316 431.904 43.3269 429.179 43.3269C426.455 43.3269 424.246 45.5316 424.246 48.2512C424.246 50.9708 426.455 53.1754 429.179 53.1754Z" fill="#F2F2F2"/>
<path d="M429.179 72.8007C431.904 72.8007 434.112 70.596 434.112 67.8764C434.112 65.1568 431.904 62.9521 429.179 62.9521C426.455 62.9521 424.246 65.1568 424.246 67.8764C424.246 70.596 426.455 72.8007 429.179 72.8007Z" fill="#F2F2F2"/>
<path d="M408.583 13.9249C411.307 13.9249 413.516 11.7203 413.516 9.00067C413.516 6.28108 411.307 4.07642 408.583 4.07642C405.858 4.07642 403.65 6.28108 403.65 9.00067C403.65 11.7203 405.858 13.9249 408.583 13.9249Z" fill="#F2F2F2"/>
<path d="M408.583 33.5502C411.307 33.5502 413.516 31.3455 413.516 28.6259C413.516 25.9063 411.307 23.7017 408.583 23.7017C405.858 23.7017 403.65 25.9063 403.65 28.6259C403.65 31.3455 405.858 33.5502 408.583 33.5502Z" fill="#F2F2F2"/>
<path d="M408.583 53.1754C411.307 53.1754 413.516 50.9708 413.516 48.2512C413.516 45.5316 411.307 43.3269 408.583 43.3269C405.858 43.3269 403.65 45.5316 403.65 48.2512C403.65 50.9708 405.858 53.1754 408.583 53.1754Z" fill="#F2F2F2"/>
<path d="M408.583 72.8007C411.307 72.8007 413.516 70.596 413.516 67.8764C413.516 65.1568 411.307 62.9521 408.583 62.9521C405.858 62.9521 403.65 65.1568 403.65 67.8764C403.65 70.596 405.858 72.8007 408.583 72.8007Z" fill="#F2F2F2"/>
<path d="M428.457 183.703C428.052 182.594 427.887 181.412 427.972 180.235C428.057 179.058 428.39 177.912 428.949 176.872C429.509 175.832 430.282 174.922 431.218 174.201C432.154 173.481 433.233 172.965 434.382 172.69C434.747 172.604 435.117 172.544 435.489 172.51L454.028 140.073L449.347 132.045L460.999 123.072L469.914 135.431C470.977 136.917 471.532 138.706 471.496 140.531C471.461 142.357 470.836 144.122 469.716 145.565L444.264 178.09C444.357 178.349 444.436 178.612 444.501 178.878C444.777 180.026 444.807 181.219 444.589 182.379C444.371 183.539 443.91 184.64 443.236 185.61C442.562 186.58 441.69 187.397 440.678 188.007C439.665 188.617 438.535 189.006 437.361 189.15C437.021 189.193 436.678 189.214 436.334 189.214C434.614 189.209 432.938 188.678 431.53 187.692C430.121 186.707 429.049 185.315 428.457 183.703V183.703Z" fill="#FFB8B8"/>
<path d="M392.288 343.332L382.936 343.331L378.487 307.323L392.29 307.324L392.288 343.332Z" fill="#FFB8B8"/>
<path d="M376.256 340.664H394.292V351.999H364.9C364.9 350.511 365.194 349.037 365.765 347.661C366.335 346.286 367.172 345.036 368.226 343.984C369.281 342.931 370.533 342.096 371.91 341.527C373.288 340.957 374.765 340.664 376.256 340.664V340.664Z" fill="#2F2E41"/>
<path d="M469.333 343.332L459.981 343.331L455.532 307.323L469.334 307.324L469.333 343.332Z" fill="#FFB8B8"/>
<path d="M453.301 340.664H471.337V351.999H441.945C441.945 350.511 442.239 349.037 442.809 347.661C443.38 346.286 444.216 345.036 445.271 343.984C446.325 342.931 447.577 342.096 448.955 341.527C450.333 340.957 451.81 340.664 453.301 340.664V340.664Z" fill="#2F2E41"/>
<path d="M463.593 124.825L442.597 132.789L437.47 118.575C436.79 116.688 436.799 114.621 437.498 112.74C438.196 110.859 439.538 109.285 441.286 108.296V108.296C443.055 107.296 445.123 106.96 447.119 107.348C449.114 107.737 450.904 108.825 452.166 110.416L463.593 124.825Z" fill="#FF5300"/>
<path d="M393.096 314.168L375.486 310.159C374.55 309.944 373.73 309.384 373.19 308.59C372.651 307.796 372.432 306.828 372.579 305.88C379.644 261.176 386.442 234.996 403.961 201.749C404.206 201.129 406.941 188.547 408.726 180.211C408.706 179.293 409.021 178.398 409.612 177.695C410.204 176.991 411.031 176.526 411.941 176.386L444.776 171.342C445.271 171.17 445.794 171.092 446.318 171.11L446.646 171.172L446.642 171.494C446.638 171.828 446.306 171.878 446.181 171.898L445.744 171.965C446.242 172.196 446.699 172.506 447.098 172.883C461.485 190.156 468.966 246.775 478.468 309.325C478.52 309.833 478.458 310.346 478.286 310.826C478.114 311.307 477.836 311.743 477.473 312.102C477.129 312.477 476.713 312.778 476.249 312.988C475.785 313.197 475.283 313.311 474.774 313.321L453.796 313.831C452.874 313.852 451.977 313.538 451.27 312.947C450.564 312.356 450.096 311.529 449.955 310.619L435.825 229.106C435.727 228.47 435.429 227.88 434.973 227.425C434.517 226.969 433.927 226.67 433.29 226.572C432.652 226.474 431.999 226.581 431.427 226.879C430.855 227.176 430.393 227.648 430.108 228.226C418.708 251.401 408.077 271.443 397.607 311.428C397.399 312.238 396.927 312.957 396.265 313.471C395.603 313.985 394.789 314.264 393.951 314.265C393.663 314.265 393.376 314.232 393.096 314.168V314.168Z" fill="#2F2E41"/>
<path d="M410.188 181.142C409.746 180.83 409.376 180.428 409.102 179.962C408.828 179.496 408.657 178.977 408.599 178.44C405.91 153.381 407.783 133.77 414.325 118.487C415.477 115.851 417.213 113.51 419.401 111.64C421.59 109.77 424.175 108.419 426.962 107.69L443.934 106.834L444.022 106.877C447.852 108.749 450.976 111.804 452.929 115.588C454.883 119.372 455.563 123.684 454.869 127.884C449.41 142.248 444.839 157.203 448.325 169.267C448.471 169.771 448.514 170.299 448.45 170.821C448.387 171.342 448.219 171.845 447.956 172.3C447.701 172.739 447.359 173.122 446.95 173.424C446.541 173.727 446.075 173.942 445.579 174.058L413.252 181.734C412.729 181.859 412.185 181.87 411.656 181.768C411.128 181.666 410.628 181.453 410.188 181.142V181.142Z" fill="#FF5300"/>
<path d="M402.882 145.181L370.329 119.545C370.07 119.636 369.806 119.714 369.539 119.778C368.39 120.046 367.197 120.07 366.039 119.848C364.88 119.627 363.781 119.164 362.813 118.49C361.838 117.816 361.019 116.942 360.411 115.926C359.802 114.911 359.418 113.777 359.283 112.602C359.065 110.722 359.49 108.824 360.488 107.215C361.486 105.606 363 104.382 364.783 103.74C365.896 103.341 367.08 103.182 368.259 103.272C369.438 103.363 370.585 103.7 371.624 104.264C372.663 104.827 373.571 105.604 374.288 106.542C375.006 107.48 375.517 108.559 375.787 109.707C375.871 110.071 375.929 110.441 375.962 110.813L408.368 129.474L416.432 124.84L425.365 136.515L412.844 145.423C411.378 146.457 409.618 146.992 407.823 146.949C406.028 146.905 404.296 146.285 402.882 145.181H402.882Z" fill="#FFB8B8"/>
<path d="M429.337 140.15L410.764 127.542L419.493 115.202C420.652 113.563 422.354 112.386 424.298 111.879C426.242 111.372 428.304 111.567 430.118 112.43V112.43C431.953 113.303 433.415 114.802 434.239 116.657C435.064 118.512 435.197 120.6 434.614 122.544L429.337 140.15Z" fill="#FF5300"/>
<path d="M438.27 100.507C448.617 100.507 457.006 92.1333 457.006 81.8043C457.006 71.4754 448.617 63.1022 438.27 63.1022C427.923 63.1022 419.535 71.4754 419.535 81.8043C419.535 92.1333 427.923 100.507 438.27 100.507Z" fill="#FFB8B8"/>
<path d="M431.401 79.0189C426.586 82.3087 420.263 85.6905 415.345 82.1871C412.115 79.8866 411.098 75.6268 412.407 71.8885C414.762 65.1659 421.233 62.2063 427.42 59.9377C435.463 56.9886 444.222 54.6424 452.525 56.7544C460.829 58.8665 468.167 66.8916 466.668 75.3134C465.463 82.0859 459.063 87.7212 459.972 94.5398C460.886 101.402 468.617 105.014 475.443 106.241C482.268 107.467 489.906 107.861 494.811 112.755C501.069 118.998 499.506 130.157 493.618 136.748C487.73 143.34 478.845 146.328 470.235 148.359C458.827 151.05 446.489 152.464 435.655 147.998C424.82 143.532 416.389 131.509 419.528 120.235C420.853 115.473 423.976 111.449 426.995 107.531C430.013 103.613 433.069 99.5158 434.22 94.7088C435.18 90.703 434.47 86.0521 431.808 83.0472C431.324 82.5213 431.02 81.8558 430.938 81.1462C430.857 80.4367 431.003 79.7196 431.355 79.098L431.401 79.0189Z" fill="#2F2E41"/>
</g>
<defs>
<clipPath id="clip0_842_3323">
<rect width="525" height="353" fill="white"/>
</clipPath>
</defs>
</svg>
